# xmcd
# 
# Track frame offsets:
#     150
#     18587
#     32895
#     54003
#     75832
#     90342
#     110370
#     132670
#     155885
#     183192
#     203025
#     219664
#     229809
#     253682
#     270221
# 
# Disc length: 3711
# 
# Revision: 6
# Processed by: cddbd v1.5.2PL0 Copyright (c) Steve Scherf et al.
# Submitted via: fre:ac v1.0.17
# 
DISCID=be0e7d0f
DTITLE=Various Artist - CompassionArt
DYEAR=2008
DGENRE=Christian Worship
TTITLE0=Chris Tomlin, Martin Smith, Kirk Franklin, Watoto Childrens Choir - Come to the water
TTITLE1=Israel Houghton, Tobymac, Darlene Zschech - Shout praise
TTITLE2=Matt Redman, Tim Hughes, Joel Houston - King of wonders
TTITLE3=Paul Baloche, Lakewood Choir - Lead me to the Rock
TTITLE4=Tim Hughes, Steve Curtis Chapman - We won't stay silent
TTITLE5=Amy Grant, Michael W Smith, Watoto Childrens Choir - Highly favoured
TTITLE6=Martin Smith, Cece Winans, Lakewood Choir - Fill my cup
TTITLE7=Leeland Mooring, Andy Park - Friend of the poor
TTITLE8=Darlene Zschech, Israel Houghton, Leeland Mooring, Lakewood Choir - King of the broken
TTITLE9=Chris Tomlin, Paul Baloche, Steven Curtis Chapman - You have shown us
TTITLE10=Graham Kendrick, Darlene Zschech - Until the day
TTITLE11=Tobymac, Kirk Franklin - Let it glow
TTITLE12=Michael W Smith, Israel Houghton, Christy Nockels, Lakewood Choir - So Great
TTITLE13=Martin Smith, Steven Curtis Chapman, Watoto Childrens Choir - There is always a song
TTITLE14=Watoto Childrens Choir - Reprise
EXTD=
EXTT0=
EXTT1=
EXTT2=
EXTT3=
EXTT4=
EXTT5=
EXTT6=
EXTT7=
EXTT8=
EXTT9=
EXTT10=
EXTT11=
EXTT12=
EXTT13=
EXTT14=
PLAYORDER=
